v 0.82165808 -0.82165808 -1.0579772e-18
v 0.82165808 -0.58100000 0.58100000
v 0.82165808 8.7595780e-17 0.82165808
v 0.82165808 0.58100000 0.58100000
v 0.82165808 0.82165808 9.9566116e-17
v 0.82165808 0.58100000 -0.58100000
v 0.82165808 2.8884397e-16 -0.82165808
v 0.82165808 -0.58100000 -0.58100000
v -0.82165808 -0.82165808 -1.0579772e-18
v -0.82165808 -0.58100000 0.58100000
v -0.82165808 -1.3028313e-17 0.82165808
v -0.82165808 0.58100000 0.58100000
v -0.82165808 0.82165808 9.9566116e-17
v -0.82165808 0.58100000 -0.58100000
v -0.82165808 1.8821987e-16 -0.82165808
v -0.82165808 -0.58100000 -0.58100000
v 1.16200000 1.5874776e-16 -1.0579772e-18
v -1.16200000 1.6443801e-17 -1.0579772e-18
v -9.1030792e-3 -1.15822938 -1.0579772e-18
v 9.1030792e-3 -1.15822938 -1.0579772e-18
v 9.1030792e-3 -0.81899185 0.81899185
v -9.1030792e-3 -0.81899185 0.81899185
v 9.1030792e-3 1.7232088e-17 1.15822938
v -9.1030792e-3 1.6117282e-17 1.15822938
v 9.1030792e-3 0.81899185 0.81899185
v -9.1030792e-3 0.81899185 0.81899185
v 9.1030792e-3 1.15822938 1.4078421e-16
v -9.1030792e-3 1.15822938 1.4078421e-16
v 9.1030792e-3 0.81899185 -0.81899185
v -9.1030792e-3 0.81899185 -0.81899185
v 9.1030792e-3 3.0091647e-16 -1.15822938
v -9.1030792e-3 2.9980166e-16 -1.15822938
v 9.1030792e-3 -0.81899185 -0.81899185
v -9.1030792e-3 -0.81899185 -0.81899185
vt 0.5 0.5
vn 0.71524683 -0.69887193 -2.5012597e-16
vn 0.61185516 -0.55930013 0.55930013
vn 0.71524683 0.0000000e+0 0.69887193
vn 0.61185516 0.55930013 0.55930013
vn 0.71524683 0.69887193 1.5632873e-17
vn 0.61185516 0.55930013 -0.55930013
vn 0.71524683 6.2531494e-17 -0.69887193
vn 0.61185516 -0.55930013 -0.55930013
vn -0.71524683 -0.69887193 -2.5012597e-16
vn -0.61185516 -0.55930013 0.55930013
vn -0.71524683 0.0000000e+0 0.69887193
vn -0.61185516 0.55930013 0.55930013
vn -0.71524683 0.69887193 4.6898620e-17
vn -0.61185516 0.55930013 -0.55930013
vn -0.71524683 4.6898620e-17 -0.69887193
vn -0.61185516 -0.55930013 -0.55930013
vn 1.00000000 1.5208752e-17 -2.6615316e-17
vn -1.00000000 -1.5208752e-17 2.2813128e-17
vn -0.19614758 -0.98057439 -2.2848712e-16
vn 0.26047011 -0.96548191 -2.4273177e-16
vn 0.13072302 -0.70103905 0.70103905
vn -0.19614758 -0.69337080 0.69337080
vn 0.22349711 5.9825845e-2 0.97286685
vn -0.22349711 -5.9825845e-2 0.97286685
vn 0.15641931 0.75510180 0.63667438
vn -0.15641931 0.63667438 0.75510180
vn 0.22349711 0.97286685 -5.9825845e-2
vn -0.22349711 0.97286685 5.9825845e-2
vn 0.15641931 0.63667438 -0.75510180
vn -0.15641931 0.75510180 -0.63667438
vn 0.22349711 -5.9825845e-2 -0.97286685
vn -0.22349711 5.9825845e-2 -0.97286685
vn 0.15641931 -0.75510180 -0.63667438
vn -0.15641931 -0.63667438 -0.75510180
f 1/1/1 17/1/17 2/1/2
f 1/1/1 20/1/20 8/1/8
f 2/1/2 17/1/17 3/1/3
f 2/1/2 20/1/20 1/1/1
f 2/1/2 23/1/23 21/1/21
f 3/1/3 17/1/17 4/1/4
f 3/1/3 23/1/23 2/1/2
f 4/1/4 17/1/17 5/1/5
f 4/1/4 23/1/23 3/1/3
f 4/1/4 27/1/27 25/1/25
f 5/1/5 17/1/17 6/1/6
f 5/1/5 27/1/27 4/1/4
f 6/1/6 17/1/17 7/1/7
f 6/1/6 27/1/27 5/1/5
f 6/1/6 31/1/31 29/1/29
f 7/1/7 17/1/17 8/1/8
f 7/1/7 31/1/31 6/1/6
f 8/1/8 17/1/17 1/1/1
f 8/1/8 20/1/20 33/1/33
f 8/1/8 31/1/31 7/1/7
f 9/1/9 18/1/18 16/1/16
f 9/1/9 19/1/19 10/1/10
f 10/1/10 18/1/18 9/1/9
f 10/1/10 19/1/19 22/1/22
f 10/1/10 24/1/24 11/1/11
f 11/1/11 18/1/18 10/1/10
f 11/1/11 24/1/24 12/1/12
f 12/1/12 18/1/18 11/1/11
f 12/1/12 24/1/24 26/1/26
f 12/1/12 28/1/28 13/1/13
f 13/1/13 18/1/18 12/1/12
f 13/1/13 28/1/28 14/1/14
f 14/1/14 18/1/18 13/1/13
f 14/1/14 28/1/28 30/1/30
f 14/1/14 32/1/32 15/1/15
f 15/1/15 18/1/18 14/1/14
f 15/1/15 32/1/32 16/1/16
f 16/1/16 18/1/18 15/1/15
f 16/1/16 19/1/19 9/1/9
f 16/1/16 32/1/32 34/1/34
f 19/1/19 33/1/33 20/1/20
f 20/1/20 21/1/21 19/1/19
f 21/1/21 20/1/20 2/1/2
f 21/1/21 24/1/24 22/1/22
f 22/1/22 19/1/19 21/1/21
f 22/1/22 24/1/24 10/1/10
f 23/1/23 26/1/26 24/1/24
f 24/1/24 21/1/21 23/1/23
f 25/1/25 23/1/23 4/1/4
f 25/1/25 28/1/28 26/1/26
f 26/1/26 23/1/23 25/1/25
f 26/1/26 28/1/28 12/1/12
f 27/1/27 30/1/30 28/1/28
f 28/1/28 25/1/25 27/1/27
f 29/1/29 27/1/27 6/1/6
f 29/1/29 32/1/32 30/1/30
f 30/1/30 27/1/27 29/1/29
f 30/1/30 32/1/32 14/1/14
f 31/1/31 34/1/34 32/1/32
f 32/1/32 29/1/29 31/1/31
f 33/1/33 19/1/19 34/1/34
f 33/1/33 31/1/31 8/1/8
f 34/1/34 19/1/19 16/1/16
f 34/1/34 31/1/31 33/1/33